<svg id="Calque_1" data-name="Calque 1" xmlns="http://www.w3.org/2000/svg" viewBox="0 0 25 25"><title>article_header_icons</title><g id="Layer_1" data-name="Layer 1"><path d="M23.76,5.62a9.3,9.3,0,0,1-2.65.72,4.58,4.58,0,0,0,2-2.52,9.42,9.42,0,0,1-2.93,1.1,4.65,4.65,0,0,0-3.37-1.44A4.58,4.58,0,0,0,12.21,8a4.32,4.32,0,0,0,.12,1A13.17,13.17,0,0,1,2.81,4.33a4.46,4.46,0,0,0-.63,2.29A4.52,4.52,0,0,0,4.24,10.4a4.66,4.66,0,0,1-2.09-.57s0,0,0,.06a4.57,4.57,0,0,0,3.71,4.46,4.57,4.57,0,0,1-1.22.16,4.62,4.62,0,0,1-.87-.08,4.61,4.61,0,0,0,4.31,3.16,9.37,9.37,0,0,1-5.74,1.95,10.14,10.14,0,0,1-1.1-.06,13.25,13.25,0,0,0,7.08,2A13,13,0,0,0,21.47,8.57c0-.2,0-.39,0-.59a9.35,9.35,0,0,0,2.31-2.36"/></g></svg>