<svg id="Calque_1" data-name="Calque 1" xmlns="http://www.w3.org/2000/svg" viewBox="0 0 15 15"><title>footer_icons</title><path d="M13.54,3.91l-2.4,2.3a.3.3,0,0,1-.4,0c-.1,0-.1-.2.1-.3l2.4-2.4-.5-.5-2.5,2.3a.3.3,0,0,1-.4,0c-.1,0-.1-.2.1-.3l2.4-2.4-.5-.5-2.7,2.3a2.64,2.64,0,0,0-.5,2.4c-1.4,1-4.6,3.5-5.1,4a1.59,1.59,0,0,0-.3,1.9h0a1.59,1.59,0,0,0,1.9-.3c.4-.4,2.9-3.6,3.9-5a2.4,2.4,0,0,0,2.7-.4L14,4.41Z"/><path d="M2.34,2.91l.3-.3c.9-.9,3.2,1.1,3.8,1.7a2.27,2.27,0,0,1,.4,2.6c1.4,1.1,4.6,3.5,5,3.9a1.59,1.59,0,0,1,.3,1.9h0a1.59,1.59,0,0,1-1.9-.3c-.4-.4-2.9-3.7-4-5.1a2.16,2.16,0,0,1-2.4-.5C3.24,6.21,1.34,3.91,2.34,2.91Z"/></svg>