<svg id="Calque_1" data-name="Calque 1" xmlns="http://www.w3.org/2000/svg" viewBox="0 0 15 15"><title>footer_icons</title><g id="Layer_1" data-name="Layer 1"><path d="M12,8.88A3.66,3.66,0,0,1,9.9,11V8.88l1.19-1.07L9.9,6.76V5.27a1.87,1.87,0,0,0,1.83-1.85A1.82,1.82,0,0,0,9.82,1.69a2.06,2.06,0,0,0-.56.06v.06h.27c.48,0,.84.22.84.66a.69.69,0,0,1-.75.66c-1.19,0-2.58-1-4.1-1a2.17,2.17,0,0,0-2.28,2,1.52,1.52,0,0,0,1.2,1.56V5.69A.72.72,0,0,1,4.13,5a.89.89,0,0,1,.95-.83c1.28,0,3.34,1.07,4.61,1.07h.12v1.5l-1.19,1L9.81,8.87v2.19a4.44,4.44,0,0,1-1.53.26A3,3,0,0,1,5,8.12a4.83,4.83,0,0,1,.19-1.4l1-.44v4.42l2-.89V5.3l-3,1.32A3.24,3.24,0,0,1,6.92,4.76v0C4.92,5.15,3,6.65,3,8.9a4.52,4.52,0,0,0,4.75,4.4c2.7,0,4.24-1.8,4.25-4.43Z"/></g></svg>